<svg xmlns="http://www.w3.org/2000/svg" viewBox="0 0 19 19"><defs><style>.cls-1{fill:#db0a0a;}</style></defs><title>failed</title><g id="Layer_2" data-name="Layer 2"><g id="Layer_1-2" data-name="Layer 1"><path class="cls-1" d="M5.9,14.15l3.6-3.6,3.6,3.6,1.05-1.05-3.6-3.6,3.6-3.6L13.1,4.85,9.5,8.45,5.9,4.85,4.85,5.9l3.6,3.6-3.6,3.6ZM9.5,19a9.2,9.2,0,0,1-3.7-.75,9.48,9.48,0,0,1-5-5A9.25,9.25,0,0,1,0,9.5,9.2,9.2,0,0,1,.75,5.8a9.48,9.48,0,0,1,5-5A9.25,9.25,0,0,1,9.5,0a9.2,9.2,0,0,1,3.7.75,9.48,9.48,0,0,1,5.05,5A9.25,9.25,0,0,1,19,9.5a9.2,9.2,0,0,1-.75,3.7,9.48,9.48,0,0,1-5,5.05A9.25,9.25,0,0,1,9.5,19Zm0-1.5a7.72,7.72,0,0,0,5.67-2.33A7.72,7.72,0,0,0,17.5,9.5a7.74,7.74,0,0,0-2.33-5.68A7.71,7.71,0,0,0,9.5,1.5,7.73,7.73,0,0,0,3.82,3.82,7.73,7.73,0,0,0,1.5,9.5a7.71,7.71,0,0,0,2.32,5.67A7.74,7.74,0,0,0,9.5,17.5Z"/></g></g></svg>