<?xml version="1.0" encoding="utf-8"?>
<!-- Generator: Adobe Illustrator 23.1.0, SVG Export Plug-In . SVG Version: 6.00 Build 0)  -->
<svg version="1.1" id="Layer_1" xmlns="http://www.w3.org/2000/svg" xmlns:xlink="http://www.w3.org/1999/xlink" x="0px" y="0px"
	 viewBox="0 0 19 19" style="enable-background:new 0 0 19 19;" xml:space="preserve">
<style type="text/css">
	.st0{fill:#006500;}
</style>
<title>passed</title>
<g>
	<g id="Layer_1-2">
		<path class="st0" d="M8.1,13.8L14.8,7l-1.1-1l-5.7,5.6L5.2,8.8l-1,1L8.1,13.8z M9.5,19c-1.3,0-2.5-0.2-3.7-0.8c-2.2-1-4-2.8-5-5
			C0.3,12.1,0,10.8,0,9.5C0,8.2,0.2,7,0.8,5.8c1-2.2,2.8-4,5-5C6.9,0.3,8.2,0,9.5,0c1.3,0,2.5,0.2,3.7,0.8c2.3,0.9,4.1,2.7,5.1,5
			C18.8,6.9,19,8.2,19,9.5c0,1.3-0.2,2.5-0.8,3.7c-0.9,2.3-2.7,4.1-5,5.1C12.1,18.8,10.8,19,9.5,19z M9.5,17.5
			c2.1,0,4.2-0.8,5.7-2.3c1.5-1.5,2.4-3.5,2.3-5.7c0-2.1-0.8-4.2-2.3-5.7c-1.5-1.5-3.5-2.4-5.7-2.3c-2.1,0-4.2,0.8-5.7,2.3
			C2.3,5.3,1.5,7.4,1.5,9.5c0,2.1,0.8,4.2,2.3,5.7C5.3,16.7,7.4,17.5,9.5,17.5z"/>
	</g>
</g>
</svg>
