<?xml version="1.0" encoding="utf-8"?>
<!-- Generator: Adobe Illustrator 25.4.1, SVG Export Plug-In . SVG Version: 6.00 Build 0)  -->
<svg version="1.1" id="Layer_1" xmlns="http://www.w3.org/2000/svg" xmlns:xlink="http://www.w3.org/1999/xlink" x="0px" y="0px"
	 viewBox="0 0 600 299" style="enable-background:new 0 0 600 299;" xml:space="preserve">
<style type="text/css">
	.st0{fill:#CF3F4F;}
	.st1{fill:#231F20;}
</style>
<path class="st0" d="M236.5,114.9c5.3-2.1,7.6-2.3,20.5-2.4c13.8,0,14.8,0.1,20.5,2.8c7.3,3.4,11.1,6.9,13.6,12.2
	c1.7,3.6,1.9,6.8,1.9,30.2c0,14.5,0.4,27.3,1,28.7c0.6,1.6,1.7,2.6,3,2.6c2,0,2-0.3,2-94.5V0H0v114h13.5l11,33
	c6,18.1,11.2,32.6,11.6,32.2c0.4-0.4,2.8-7.5,5.4-15.7c2.5-8.3,7.1-22.8,10.2-32.3l5.4-17.2h10.5c5.7,0,10.4,0.1,10.4,0.2
	c0,0.2-7.1,20.1-15.8,44.3l-15.9,44H23.8l-11.4-31.4c-6.3-17.3-11.7-31.7-11.9-32c-0.3,0-0.5,35.7-0.5,79.7V299h299v-94.5h-8.4
	c-8,0-8.6-0.2-11.5-2.9c-1.7-1.6-3.3-3.7-3.6-4.7c-0.5-1.6-1-1.5-5.2,1.1c-7.8,5-13.7,6.5-25.3,6.5c-8.5,0-11.3-0.4-15-2.1
	c-6.1-2.8-10.7-6.9-13.3-11.8c-3.1-5.8-3.1-18.4,0-24.1c5.2-9.7,12.1-12.8,36.7-16.1c17.6-2.3,20.6-3.9,20.6-10.8
	c0-8.1-5.2-11.6-17.2-11.6c-11.8,0.1-16.3,2.9-19.2,12.2c-0.5,1.6-1.9,1.8-10,1.8c-5.2,0-9.8-0.4-10.1-1c-0.3-0.5,0.2-3.8,1.1-7.2
	C220.9,125.6,227.8,118.4,236.5,114.9z M157.8,157.5l-0.3,6l-32.2,0.3c-36.7,0.3-33.6-0.7-30.7,9.3c5.6,18.8,32.7,22,41.5,4.8
	l1.9-3.9h9c8.7,0,9,0.1,9,2.3c0,7.7-12.3,21.7-22.7,25.8c-4.9,2-7.6,2.3-17.3,2.3c-14.2-0.1-20.3-2.1-28.5-9.6
	C77.5,185.7,73,174.5,73,159c0-22.6,11.1-39.2,30.5-45.7c2.5-0.8,7.6-1.2,14-1c8.6,0.3,10.8,0.7,16,3.2
	C148.6,122.8,158.8,140.3,157.8,157.5z M216,131.5l-5.7-0.4c-7.5-0.4-12.5,1.2-17.5,5.7c-7.8,7-8.2,9.1-8.8,39.2l-0.5,26.5h-20v-88
	l9.8-0.3l9.7-0.3v14.6l1.8-3c5.1-8.3,14.5-13.4,24.5-13.5h6.7V131.5z"/>
<path class="st0" d="M137.7,149.5l-22,0.3c-12.1,0.1-22.2,0-22.5-0.3s0.2-3,1.2-6c1.9-6.1,6.7-11.6,11.9-13.9
	c5.2-2.3,14.5-2,19.1,0.7c5.3,3,9.6,8.6,11.1,14.4L137.7,149.5z"/>
<path class="st1" d="M312,152.4V205h13.5H339v-17.4v-17.3l17.3-0.5c18.4-0.6,23.4-1.6,30.9-6.5c4.4-3,9.3-9.9,11-15.7
	c0.7-2.3,1.3-8.6,1.3-14.1c0-9-0.3-10.6-2.8-15.7c-3.4-6.9-9-12-16.6-15c-5.3-2.2-7.1-2.3-36.8-2.6L312,99.9V152.4z M366.7,124
	c4,2.4,5.4,5,5.6,10.3c0.2,5.7-1.7,9.9-5.6,12.2c-2.7,1.6-5.2,2-15.2,2h-12l-0.3-13.3l-0.3-13.2h12.3C361.6,122,364,122.3,366.7,124
	z"/>
<path class="st1" d="M407,152.6v52.6l28.8-0.4c30.8-0.5,33.5-0.9,44.6-6.5c10-5.1,18.4-16.8,21.7-30.3c1.9-8,1.7-26.1-0.5-33.5
	c-4.2-14.2-12.4-24.2-24.1-29.5c-9.7-4.4-14.6-5-43.5-5h-27V152.6z M461.5,125.9c6,2.7,9,5.3,11.8,10.6c1.9,3.5,2.2,5.6,2.2,16
	c0,10.5-0.3,12.5-2.2,16.1c-4.9,9.1-12.5,12.4-29,12.4H434v-28.3c0-15.6,0.3-28.7,0.8-29.1c0.4-0.5,5.4-0.6,11.2-0.4
	C454,123.6,457.7,124.2,461.5,125.9z"/>
<path class="st1" d="M513,152.5V205h13.5H540v-20.5V164h22h22.1l-0.3-10.3l-0.3-10.2l-21.7-0.3L540,143v-10.5V122h25h25v-11v-11
	h-38.5H513V152.5z"/>
<path class="st0" d="M270.8,160c-0.9,0.6-6.3,1.7-12,2.6c-14.2,2.1-17.7,3.1-20.9,6.3c-5.6,5.6-4.6,13.6,2.1,17.5
	c5.4,3.2,17.9,3,24-0.4c7.2-4.1,9-7.7,9-18.1c0-4.9-0.1-8.9-0.2-8.9C272.6,159,271.7,159.5,270.8,160z"/>
</svg>
